{
	"asset":{
		"generator":"Khronos glTF Blender I/O v4.4.56",
		"version":"2.0"
	},
	"scene":0,
	"scenes":[
		{
			"name":"Scene",
			"nodes":[
				0,
				1
			]
		}
	],
	"nodes":[
		{
			"mesh":0,
			"name":"Cube",
			"translation":[
				-0.053652480244636536,
				0.9431098103523254,
				0.027751348912715912
			]
		},
		{
			"mesh":1,
			"name":"\u30c6\u30ad\u30b9\u30c8",
			"translation":[
				-0.152523934841156,
				1.887223243713379,
				0.498492956161499
			]
		}
	],
	"materials":[
		{
			"doubleSided":true,
			"name":"Material",
			"pbrMetallicRoughness":{
				"baseColorFactor":[
					0,
					0.8001810312271118,
					0.6892143487930298,
					1
				],
				"metallicFactor":0,
				"roughnessFactor":0.5
			}
		},
		{
			"doubleSided":true,
			"name":"\u30de\u30c6\u30ea\u30a2\u30eb",
			"pbrMetallicRoughness":{
				"baseColorFactor":[
					0.8001105785369873,
					0,
					0.4656703472137451,
					1
				],
				"metallicFactor":0,
				"roughnessFactor":0.5
			}
		}
	],
	"meshes":[
		{
			"name":"Cube",
			"primitives":[
				{
					"attributes":{
						"POSITION":0,
						"NORMAL":1,
						"TEXCOORD_0":2
					},
					"indices":3,
					"material":0
				}
			]
		},
		{
			"name":"\u30c6\u30ad\u30b9\u30c8",
			"primitives":[
				{
					"attributes":{
						"POSITION":4,
						"NORMAL":5,
						"TEXCOORD_0":6
					},
					"indices":7,
					"material":1
				}
			]
		}
	],
	"accessors":[
		{
			"bufferView":0,
			"componentType":5126,
			"count":24,
			"max":[
				1,
				1,
				1
			],
			"min":[
				-1,
				-1,
				-1
			],
			"type":"VEC3"
		},
		{
			"bufferView":1,
			"componentType":5126,
			"count":24,
			"type":"VEC3"
		},
		{
			"bufferView":2,
			"componentType":5126,
			"count":24,
			"type":"VEC2"
		},
		{
			"bufferView":3,
			"componentType":5123,
			"count":36,
			"type":"SCALAR"
		},
		{
			"bufferView":4,
			"componentType":5126,
			"count":2710,
			"max":[
				1.9790000915527344,
				0.5999999046325684,
				0.07400000095367432
			],
			"min":[
				0.11500000208616257,
				-0.5999999046325684,
				-0.8220000267028809
			],
			"type":"VEC3"
		},
		{
			"bufferView":5,
			"componentType":5126,
			"count":2710,
			"type":"VEC3"
		},
		{
			"bufferView":6,
			"componentType":5126,
			"count":2710,
			"type":"VEC2"
		},
		{
			"bufferView":7,
			"componentType":5123,
			"count":8028,
			"type":"SCALAR"
		}
	],
	"bufferViews":[
		{
			"buffer":0,
			"byteLength":288,
			"byteOffset":0,
			"target":34962
		},
		{
			"buffer":0,
			"byteLength":288,
			"byteOffset":288,
			"target":34962
		},
		{
			"buffer":0,
			"byteLength":192,
			"byteOffset":576,
			"target":34962
		},
		{
			"buffer":0,
			"byteLength":72,
			"byteOffset":768,
			"target":34963
		},
		{
			"buffer":0,
			"byteLength":32520,
			"byteOffset":840,
			"target":34962
		},
		{
			"buffer":0,
			"byteLength":32520,
			"byteOffset":33360,
			"target":34962
		},
		{
			"buffer":0,
			"byteLength":21680,
			"byteOffset":65880,
			"target":34962
		},
		{
			"buffer":0,
			"byteLength":16056,
			"byteOffset":87560,
			"target":34963
		}
	],
	"buffers":[
		{
			"byteLength":103616,
			"uri":"ho01.bin"
		}
	]
}
